<svg width="34" height="35" viewBox="0 0 34 35" fill="none" xmlns="http://www.w3.org/2000/svg">
<path d="M16.6303 0.869502C25.826 0.869502 33.2607 8.30429 33.2607 17.4999C33.2607 26.6956 25.826 34.1304 16.6303 34.1304C7.43466 34.1304 -0.000125235 26.6956 -0.000124431 17.4999C-0.000123627 8.30428 7.43466 0.869501 16.6303 0.869502ZM16.6303 32.1738C24.7499 32.1738 31.3042 25.6195 31.3042 17.4999C31.3042 9.38037 24.7499 2.82602 16.6303 2.82602C8.51075 2.82602 1.9564 9.38037 1.9564 17.4999C1.9564 25.6195 8.51074 32.1738 16.6303 32.1738Z" fill="black"/>
<path d="M16.9239 8.01075L18.2935 9.38032L10.1739 17.4999L18.2935 25.6194L16.9239 26.989L7.43476 17.4999L16.9239 8.01075Z" fill="black"/>
<path d="M25.4346 18.4783L8.80414 18.4783L8.80414 16.5217L25.4346 16.5217L25.4346 18.4783Z" fill="black"/>
</svg>
