<svg width="34" height="35" viewBox="0 0 34 35" fill="none" xmlns="http://www.w3.org/2000/svg">
<path d="M17.3697 34.1305C8.17404 34.1305 0.739258 26.6957 0.739258 17.5001C0.739258 8.30441 8.17404 0.869629 17.3697 0.869629C26.5653 0.869629 34.0001 8.30441 34.0001 17.5001C34.0001 26.6957 26.5653 34.1305 17.3697 34.1305ZM17.3697 2.82615C9.25013 2.82615 2.69578 9.3805 2.69578 17.5001C2.69578 25.6196 9.25013 32.174 17.3697 32.174C25.4893 32.174 32.0436 25.6196 32.0436 17.5001C32.0436 9.3805 25.4893 2.82615 17.3697 2.82615Z" fill="black"/>
<path d="M17.0764 26.9892L15.7068 25.6197L23.8264 17.5001L15.7068 9.38055L17.0764 8.01099L26.5655 17.5001L17.0764 26.9892Z" fill="black"/>
<path d="M8.56543 16.5217H25.1959V18.4783H8.56543V16.5217Z" fill="black"/>
</svg>
