<svg width="13" height="13" viewBox="0 0 13 13" fill="none" xmlns="http://www.w3.org/2000/svg">
<path d="M12.9926 10.2594C12.9616 10.0677 12.8415 9.90383 12.6615 9.80649L9.99929 8.2375L9.97737 8.22523C9.86575 8.16935 9.74247 8.1407 9.61765 8.14164C9.3946 8.14164 9.18159 8.22616 9.03376 8.37441L8.248 9.16076C8.21438 9.19271 8.10481 9.23897 8.07157 9.24064C8.06247 9.2399 7.15729 9.17469 5.49088 7.50761C3.82743 5.84406 3.75686 4.93585 3.7563 4.93585C3.75723 4.8894 3.80291 4.78017 3.83541 4.74636L4.50547 4.0763C4.74152 3.83963 4.81227 3.44729 4.67224 3.14337L3.19247 0.35816C3.08494 0.136725 2.87601 0 2.64424 0C2.48025 0 2.32202 0.067991 2.19834 0.191526L0.371832 2.01446C0.196703 2.18871 0.0459025 2.49337 0.0130309 2.73859C-0.00294054 2.85581 -0.327013 5.65384 3.508 9.4905C6.76376 12.7468 9.30249 12.9998 10.0036 12.9998C10.0889 13.0009 10.1743 12.9965 10.2591 12.9866C10.5035 12.9539 10.8077 12.8035 10.9817 12.629L12.8067 10.8037C12.9557 10.654 13.0237 10.4561 12.9926 10.2594Z" fill="#F24A20"/>
</svg>
