<svg width="185" height="188" viewBox="0 0 185 188" fill="none" xmlns="http://www.w3.org/2000/svg">
<path d="M92.5 130.506L5 67.7784L92.5 5L180 67.7784L92.5 130.557V130.506ZM9.20286 67.7784L92.5 127.538L175.797 67.7784L92.5 8.01868L9.20286 67.7784Z" fill="#8DC63F"/>
<path d="M167.794 93.9744L179.955 85.2254L167.794 76.4763L165.692 78.0112L175.752 85.2254L92.4553 144.985L9.20286 85.2254L19.2629 78.0112L17.1615 76.4763L5 85.2254L17.1615 93.9744L5 102.724L17.1615 111.473L5 120.222L92.5 183L180 120.222L167.839 111.473L180 102.724L167.839 93.9744H167.794ZM175.797 120.17L92.5 179.93L9.20286 120.17L19.2629 112.956L92.4553 165.451L165.648 112.956L175.708 120.17H175.797ZM92.5 162.432L9.20286 102.724L19.2629 95.5094L92.4553 148.004L165.648 95.5094L175.708 102.724L92.4106 162.483L92.5 162.432Z" fill="white"/>
</svg>
