<svg width="116" height="111" viewBox="0 0 116 111" fill="none" xmlns="http://www.w3.org/2000/svg">
<path d="M106.464 5H9.38813C6.96463 5 5 6.9643 5 9.38738V82.8982C5 85.3213 6.96463 87.2856 9.38813 87.2856H106.464C108.888 87.2856 110.853 85.3213 110.853 82.8982V9.38738C110.853 6.9643 108.888 5 106.464 5Z" stroke="white" stroke-width="2" stroke-miterlimit="10"/>
<path d="M77.2697 105.73H38.5825" stroke="white" stroke-width="2" stroke-miterlimit="10" stroke-linecap="round"/>
<path d="M102.225 14.0434H13.6567V70.7509H102.225V14.0434Z" stroke="#F15A29" stroke-width="2" stroke-miterlimit="10"/>
<path d="M69.4487 105.581H46.4036L48.9409 87.2856H66.9412L69.4487 105.581Z" stroke="white" stroke-width="2" stroke-miterlimit="10"/>
<path d="M52.6127 33.5627L65.1203 40.7854C66.3741 41.5017 66.3741 43.3223 65.1203 44.0387L52.6127 51.2614C51.3589 51.9777 49.8066 51.0823 49.8066 49.6497V35.234C49.8066 33.8014 51.3589 32.8762 52.6127 33.6224V33.5627Z" stroke="white" stroke-width="2" stroke-miterlimit="10"/>
</svg>
