<svg width="108" height="103" viewBox="0 0 108 103" fill="none" xmlns="http://www.w3.org/2000/svg">
<path d="M102.464 1H5.38813C2.96463 1 1 2.9643 1 5.38738V78.8982C1 81.3213 2.96463 83.2856 5.38813 83.2856H102.464C104.888 83.2856 106.853 81.3213 106.853 78.8982V5.38738C106.853 2.9643 104.888 1 102.464 1Z" stroke="white" stroke-width="2" stroke-miterlimit="10"/>
<path d="M73.2698 101.73H34.5826" stroke="white" stroke-width="2" stroke-miterlimit="10" stroke-linecap="round"/>
<path d="M98.2254 10.0434H9.65676V66.7509H98.2254V10.0434Z" stroke="#F15A29" stroke-width="2" stroke-miterlimit="10"/>
<path d="M65.4488 101.581H42.4036L44.941 83.2856H62.9413L65.4488 101.581Z" stroke="white" stroke-width="2" stroke-miterlimit="10"/>
<path d="M48.6127 29.5627L61.1204 36.7854C62.3741 37.5017 62.3741 39.3223 61.1204 40.0387L48.6127 47.2614C47.3589 47.9777 45.8067 47.0823 45.8067 45.6497V31.2341C45.8067 29.8014 47.3589 28.8762 48.6127 29.6224V29.5627Z" stroke="white" stroke-width="2" stroke-miterlimit="10"/>
</svg>
