<svg width="105" height="105" viewBox="0 0 105 105" fill="none" xmlns="http://www.w3.org/2000/svg">
<path d="M96.2315 8.59751H8.73801V96.3719H96.2315V8.59751Z" stroke="#EC008C" stroke-width="2" stroke-miterlimit="10"/>
<path d="M12.4456 5H5V12.4695H12.4456V5Z" fill="#141414" stroke="white" stroke-width="2" stroke-miterlimit="10"/>
<path d="M100 5H92.5544V12.4695H100V5Z" fill="#141414" stroke="white" stroke-width="2" stroke-miterlimit="10"/>
<path d="M12.4457 92.5305H5.00006V100H12.4457V92.5305Z" fill="#141414" stroke="white" stroke-width="2" stroke-miterlimit="10"/>
<path d="M100 92.5305H92.5544V100H100V92.5305Z" fill="#141414" stroke="white" stroke-width="2" stroke-miterlimit="10"/>
<path d="M36.793 32.8049L37.6743 31.4329L36.4891 41.5854H35L35.6078 31.4329H68.7332L69.341 41.5854H67.8518L66.6666 31.4329L67.5479 32.8049H36.7626H36.793ZM52.5959 71.8902L60.467 72.3171V73.5671H43.8436V72.3171L51.7146 71.8902H52.5959ZM51.2284 50.7317C51.2284 44.2683 51.2284 37.7744 51.1068 31.4329H53.2037C53.0822 37.7744 53.0822 44.2683 53.0822 50.7317V54.2683C53.0822 60.7317 53.0822 67.2256 53.2037 73.5671H51.1068C51.2284 67.2256 51.2284 60.7317 51.2284 54.2683V50.7317Z" fill="white"/>
</svg>
